<?xml version="1.0" encoding="utf-8"?>
<!-- Generator: Adobe Illustrator 26.0.1, SVG Export Plug-In . SVG Version: 6.00 Build 0)  -->
<svg version="1.1" id="Layer_1" xmlns="http://www.w3.org/2000/svg" xmlns:xlink="http://www.w3.org/1999/xlink" x="0px" y="0px"
	 viewBox="0 0 360.27 187.9" style="enable-background:new 0 0 360.27 187.9;" xml:space="preserve">
<style type="text/css">
	.st0{fill:#EA4824;}
	.st1{fill:#EA4724;}
	.st2{fill:#F6B21A;}
	.st3{fill:#1EA9E1;}
	.st4{fill:#8FC641;}
	.st5{fill:#069547;}
	.st6{fill:#D32027;}
	.st7{filter:url(#Adobe_OpacityMaskFilter_00000008855835188377737290000009091678372869951650_);}
	.st8{filter:url(#Adobe_OpacityMaskFilter_00000166673220865541132560000005528040665052351619_);}
	.st9{mask:url(#id0_00000084488088197479895520000001044172474802012599_);fill:url(#SVGID_1_);}
	.st10{fill:url(#SVGID_00000106844849309876511280000008833314840845603205_);}
	.st11{fill:#A1D4B0;}
	.st12{fill:#FFC72B;}
	.st13{font-family:'MyriadPro-Regular';}
	.st14{font-size:17.012px;}
</style>
<g>
	<g>
		<path class="st0" d="M34.4,59.24c-1.15-1.41-2.4-2.69-3.69-3.92c-1.29-1.24-2.63-2.41-4-3.55c-1.37-1.13-2.78-2.23-4.24-3.26
			c-1.45-1.04-2.95-2.03-4.55-2.88c1.15,1.41,2.4,2.69,3.69,3.92c1.29,1.24,2.63,2.41,4,3.55c1.38,1.13,2.78,2.23,4.25,3.26
			C31.31,57.39,32.8,58.39,34.4,59.24z"/>
		<path class="st0" d="M48.41,41.14c-0.17-1.77-0.39-3.54-0.69-5.3c-0.29-1.76-0.65-3.52-1.18-5.26c-0.19,1.81-0.21,3.6-0.17,5.39
			c0.03,1.79,0.15,3.57,0.32,5.34c0.17,1.77,0.39,3.54,0.7,5.3c0.29,1.76,0.65,3.52,1.17,5.26c0.19-1.81,0.21-3.6,0.16-5.39
			C48.69,44.69,48.57,42.91,48.41,41.14z"/>
		<path class="st0" d="M18.31,76.43c1.77-0.16,3.54-0.38,5.31-0.67c1.76-0.29,3.52-0.63,5.26-1.15c-1.81-0.2-3.6-0.22-5.39-0.19
			c-1.79,0.02-3.57,0.13-5.34,0.29c-1.77,0.16-3.55,0.37-5.31,0.67c-1.76,0.29-3.52,0.64-5.26,1.15c1.81,0.2,3.6,0.22,5.39,0.19
			C14.75,76.7,16.53,76.59,18.31,76.43z"/>
		<path class="st0" d="M36.93,47.24c-0.44-0.83-0.91-1.65-1.43-2.44c-0.51-0.79-1.06-1.57-1.71-2.29c0.23,0.94,0.55,1.84,0.92,2.71
			c0.36,0.87,0.76,1.73,1.2,2.56c0.44,0.83,0.91,1.65,1.43,2.44c0.51,0.79,1.06,1.57,1.71,2.29c-0.23-0.94-0.55-1.84-0.92-2.71
			C37.76,48.92,37.36,48.07,36.93,47.24z"/>
		<path class="st0" d="M59.82,45c-0.28,0.9-0.52,1.81-0.71,2.73c-0.2,0.92-0.36,1.86-0.41,2.83c0.51-0.83,0.9-1.69,1.26-2.56
			c0.36-0.87,0.68-1.76,0.96-2.66c0.28-0.9,0.52-1.81,0.72-2.73c0.2-0.92,0.36-1.86,0.41-2.83c-0.51,0.83-0.91,1.69-1.27,2.56
			C60.42,43.21,60.1,44.1,59.82,45z"/>
		<path class="st0" d="M25.55,86.25c0.83-0.44,1.64-0.92,2.43-1.44c0.79-0.52,1.56-1.07,2.28-1.72c-0.94,0.23-1.83,0.56-2.7,0.93
			c-0.87,0.37-1.72,0.77-2.55,1.21c-0.83,0.44-1.64,0.92-2.43,1.43c-0.79,0.52-1.56,1.07-2.28,1.72c0.94-0.23,1.83-0.56,2.7-0.93
			C23.87,87.1,24.72,86.7,25.55,86.25z"/>
		<path class="st0" d="M22.46,65.18c0.9,0.28,1.81,0.51,2.74,0.7c0.92,0.19,1.86,0.35,2.83,0.4c-0.83-0.5-1.69-0.9-2.57-1.26
			c-0.88-0.36-1.76-0.67-2.66-0.95c-0.9-0.28-1.81-0.51-2.74-0.71c-0.92-0.19-1.86-0.35-2.83-0.4c0.83,0.51,1.69,0.9,2.57,1.26
			C20.67,64.59,21.56,64.91,22.46,65.18z"/>
		<g>
			<path class="st1" d="M36.89,87.24l2.82-3.42c-5.85-5.44-6.52-14.6-1.36-20.84c0.36-0.43,0.73-0.83,1.12-1.22
				c-0.09-1.84,0.09-3.8,0.57-5.97c-1.89,1.12-3.62,2.58-5.1,4.37C28.23,68.29,29.16,80.24,36.89,87.24z"/>
			<path class="st1" d="M49.65,53.04l1.6,2.07l1.02,1.3c0.34,0.43,0.64,0.88,0.92,1.35c2.07,0.43,4.08,1.29,5.87,2.6l2.82-3.42
				C58.25,54.23,53.92,52.95,49.65,53.04z"/>
		</g>
		<g>
			<path class="st2" d="M40.45,82.93l3.35-4.06c-2.54-2.58-3.2-6.42-1.82-9.66c-0.33-0.47-0.63-0.94-0.89-1.42
				c-0.7-1.23-1.2-2.7-1.45-4.26c-0.01-0.08-0.02-0.17-0.04-0.25c-0.13,0.14-0.25,0.28-0.37,0.43
				C34.49,69.47,35.09,77.9,40.45,82.93z"/>
			<path class="st2" d="M53.9,59.13c0.79,1.76,1.19,3.7,1.18,5.61c0,0.17-0.01,0.33-0.02,0.5l3.28-3.97
				C56.96,60.27,55.46,59.56,53.9,59.13z"/>
		</g>
		<path class="st3" d="M47.34,73.96c-1.32-0.69-2.53-1.57-3.59-2.62c-0.33-0.33-0.65-0.68-0.95-1.04c-0.86,2.63-0.24,5.61,1.74,7.68
			l3.17-3.83C47.58,74.08,47.46,74.02,47.34,73.96z"/>
		<path class="st4" d="M30.93,67.63C30.93,67.64,30.93,67.64,30.93,67.63c0,0,0-0.01,0.01-0.02C30.93,67.62,30.93,67.63,30.93,67.63
			z"/>
		<path class="st5" d="M43.37,53c-0.06,0.19-0.13,0.38-0.19,0.57c-0.07,0.21-0.13,0.41-0.19,0.62c-0.02,0.07-0.04,0.14-0.06,0.2
			c-0.12,0.39-0.23,0.79-0.33,1.18c-0.35,1.4-0.58,2.84-0.67,4.26c-0.01,0.23-0.03,0.47-0.04,0.7c0,0.19,0.01,0.37,0.01,0.56
			c0,0.05,0,0.1,0,0.15c0.01,0.65,0.05,1.29,0.15,1.92c0.2,1.23,0.57,2.4,1.18,3.47c0.06,0.1,0.12,0.2,0.18,0.3
			c0.1,0.17,0.2,0.35,0.31,0.52c0.09,0.14,0.19,0.28,0.28,0.41c0.02,0.03,0.04,0.06,0.06,0.09c0.42,0.59,0.9,1.15,1.41,1.66
			c0.88,0.87,1.9,1.61,3.01,2.19c0.28,0.14,0.56,0.27,0.84,0.39l0.25-0.31c-0.87-1.8-1.63-3.64-2.25-5.53
			c-0.08-0.24-0.15-0.49-0.22-0.73c-0.01-0.03-0.02-0.07-0.03-0.1c-0.05-0.17-0.11-0.35-0.16-0.52c-0.05-0.16-0.09-0.33-0.14-0.5
			c-0.49-1.7-0.88-3.42-1.19-5.15c-0.01-0.04-0.02-0.08-0.02-0.12c-0.03-0.17-0.06-0.33-0.09-0.5c-0.03-0.17-0.06-0.35-0.09-0.52
			c-0.03-0.16-0.06-0.32-0.08-0.48c-0.02-0.11,0.06-0.22,0.17-0.24c0.11-0.02,0.21,0.05,0.23,0.16c0.03,0.14,0.07,0.28,0.11,0.42
			c0.04,0.17,0.09,0.34,0.13,0.5c0.04,0.16,0.09,0.33,0.13,0.49c0.01,0.04,0.02,0.08,0.03,0.12c0.46,1.7,1.01,3.37,1.64,5
			c0.06,0.15,0.11,0.31,0.18,0.46c0.07,0.17,0.14,0.34,0.21,0.52c0.01,0.03,0.03,0.07,0.04,0.1c0.09,0.22,0.17,0.44,0.27,0.66
			c0.67,1.56,1.45,3.07,2.3,4.52l1.8-2.18c0.24-0.88,0.4-1.77,0.47-2.68c0-0.04,0-0.08,0.01-0.11c0.01-0.22,0.03-0.45,0.03-0.67
			c0-0.03,0-0.05,0-0.08c0-0.12-0.01-0.24-0.01-0.36c-0.05-1.92-0.55-3.82-1.52-5.46c-0.05-0.08-0.1-0.17-0.15-0.25
			c-0.03-0.04-0.05-0.09-0.08-0.13c-0.13-0.2-0.26-0.39-0.4-0.58c-0.07-0.1-0.14-0.2-0.22-0.3l-0.15-0.19l-0.87-1.11l-2.03-2.63
			c-0.12-0.16-0.24-0.32-0.36-0.48c-0.04-0.05-0.08-0.1-0.11-0.15c-0.12-0.16-0.24-0.32-0.36-0.49c-0.1-0.13-0.2-0.27-0.3-0.4
			c-0.62-0.82-1.23-1.64-1.84-2.46C44.17,50.79,43.74,51.89,43.37,53z"/>
	</g>
	<path class="st6" d="M51.39,102.59c7.17,1.37,12.62,8.22,11.4,15.57c-1.4,7.31-9.16,12.29-16.47,10.89
		c-7.31-1.4-12.1-8.46-10.7-15.76c0.12-0.64,0.29-1.26,0.49-1.86c1.85-6.33,7.94-13.37,14.52-21.11
		c12.94-15.22,30.61-29.22,15.8-53.57c-0.07-0.11-0.14-0.22-0.2-0.33c-0.12-0.19-0.24-0.38-0.36-0.57
		c2.05,20.64-29.34,41.59-43.84,65.32l0.01-0.01c-2.81,4.37-5.14,9.59-6.15,14.84c-3.31,17.27,8.01,33.96,25.29,37.27
		c17.28,3.31,33.96-8.01,37.27-25.29c1.56-8.14-0.13-16.14-4.15-22.68c4.94-1.38,6.67-6.66,6.62-9.83
		c-7.21,7.65-15.32-5.67-23.23,3.9c-3.22-0.53-6.95-0.22-10.17,3.06C48.78,102.28,50.09,102.34,51.39,102.59L51.39,102.59z"/>
	<defs>
		<filter id="Adobe_OpacityMaskFilter" filterUnits="userSpaceOnUse" x="61.3" y="98.38" width="8.73" height="2.82">
			<feColorMatrix  type="matrix" values="1 0 0 0 0  0 1 0 0 0  0 0 1 0 0  0 0 0 1 0"/>
		</filter>
	</defs>
	
		<mask maskUnits="userSpaceOnUse" x="61.3" y="98.38" width="8.73" height="2.82" id="id0_00000084488088197479895520000001044172474802012599_">
		<defs>
			
				<filter id="Adobe_OpacityMaskFilter_00000153671266558110766020000010348453206800262308_" filterUnits="userSpaceOnUse" x="61.18" y="98" width="9.06" height="3.49">
				<feFlood  style="flood-color:white;flood-opacity:1" result="back"/>
				<feBlend  in="SourceGraphic" in2="back" mode="normal"/>
			</filter>
		</defs>
		
			<mask maskUnits="userSpaceOnUse" x="61.18" y="98" width="9.06" height="3.49" id="id0_00000084488088197479895520000001044172474802012599_" style="filter:url(#Adobe_OpacityMaskFilter);">
			<g style="filter:url(#Adobe_OpacityMaskFilter_00000153671266558110766020000010348453206800262308_);">
				<defs>
					
						<filter id="Adobe_OpacityMaskFilter_00000015325777690889891280000011345960967949316798_" filterUnits="userSpaceOnUse" x="61.18" y="98" width="9.06" height="3.49">
						<feFlood  style="flood-color:white;flood-opacity:1" result="back"/>
						<feBlend  in="SourceGraphic" in2="back" mode="normal"/>
					</filter>
				</defs>
				
					<mask maskUnits="userSpaceOnUse" x="61.18" y="98" width="9.06" height="3.49" id="id0_00000084488088197479895520000001044172474802012599_">
					<g style="filter:url(#Adobe_OpacityMaskFilter_00000015325777690889891280000011345960967949316798_);">
					</g>
				</mask>
				
					<linearGradient id="SVGID_1_" gradientUnits="userSpaceOnUse" x1="83.8799" y1="866.6777" x2="83.8882" y2="864.5167" gradientTransform="matrix(0.9974 -0.0725 -0.0725 -0.9974 44.7134 967.9077)">
					<stop  offset="0" style="stop-color:#FFFFFF"/>
					<stop  offset="1" style="stop-color:#000000"/>
				</linearGradient>
				<polygon class="st9" points="61.18,98.64 70.03,98 70.24,100.84 61.39,101.48 				"/>
			</g>
		</mask>
		
			<linearGradient id="SVGID_00000028310341454254364490000016943564551675349935_" gradientUnits="userSpaceOnUse" x1="83.8799" y1="866.6777" x2="83.8882" y2="864.5167" gradientTransform="matrix(0.9974 -0.0725 -0.0725 -0.9974 44.7134 967.9077)">
			<stop  offset="0" style="stop-color:#FFFFFF"/>
			<stop  offset="1" style="stop-color:#FFFFFF"/>
		</linearGradient>
		<polygon style="fill:url(#SVGID_00000028310341454254364490000016943564551675349935_);" points="61.18,98.64 70.03,98 
			70.24,100.84 61.39,101.48 		"/>
	</mask>
	<path class="st11" d="M70.03,98.38c-2.71,2.87-5.75-2.13-8.73,1.46C62.12,101.97,68.81,101.67,70.03,98.38z"/>
	<path class="st12" d="M46.44,129.03c-7.38-1.39-12.22-8.45-10.8-15.76c0.12-0.64,0.29-1.26,0.5-1.86c0.11-0.37,0.23-0.74,0.37-1.11
		c0.64-1.74,1.58-3.53,2.74-5.37c-1.7,2.51-3.37,5.28-4.47,8.12c-4.13,10.65,2.21,22.75,13.77,24.93
		c9.98,1.88,19.63-4.6,21.55-14.48c1.92-9.88-4.62-19.42-14.6-21.3c-2.68-0.51-5.34-0.41-7.83,0.2c1.27-0.13,2.6-0.02,3.92,0.23
		c7.38,1.39,12.21,8.39,10.79,15.7C60.95,125.63,53.82,130.43,46.44,129.03L46.44,129.03z"/>
</g>
<path d="M346.22,54.47c1.1,0.6,1.97,1.43,2.61,2.5c0.64,1.07,0.98,2.27,1.01,3.59c0.03,1.32-0.26,2.54-0.87,3.65
	c-0.61,1.11-1.45,2-2.53,2.65c-1.08,0.66-2.28,1-3.6,1.03c-1.32,0.03-2.53-0.26-3.63-0.87c-1.1-0.61-1.97-1.46-2.62-2.53
	c-0.65-1.08-0.99-2.27-1.02-3.58c-0.03-1.31,0.26-2.51,0.86-3.62c0.6-1.11,1.45-1.99,2.52-2.64c1.08-0.66,2.29-1,3.62-1.03
	C343.91,53.59,345.12,53.88,346.22,54.47 M345.84,65.91c0.9-0.56,1.6-1.3,2.11-2.24c0.51-0.93,0.75-1.96,0.72-3.08
	c-0.02-1.12-0.3-2.13-0.83-3.03c-0.53-0.9-1.25-1.6-2.17-2.11c-0.91-0.51-1.94-0.75-3.07-0.72c-1.13,0.02-2.15,0.31-3.06,0.86
	c-0.91,0.55-1.61,1.29-2.11,2.22c-0.5,0.93-0.74,1.95-0.71,3.07c0.02,1.12,0.3,2.13,0.84,3.04c0.54,0.91,1.27,1.62,2.19,2.13
	c0.92,0.51,1.94,0.76,3.06,0.73C343.93,66.76,344.94,66.47,345.84,65.91 M345.97,60.99c-0.27,0.42-0.66,0.75-1.16,0.98l1.84,2.69
	l-1.74,0.04l-1.63-2.39l-0.22,0l-1.58,0.03l0.05,2.43l-1.74,0.04l-0.17-7.97l3.32-0.07c1.04-0.02,1.86,0.21,2.47,0.7
	c0.61,0.49,0.92,1.15,0.94,2C346.37,60.06,346.24,60.57,345.97,60.99 M342.93,60.96c0.57-0.01,1-0.15,1.31-0.4
	c0.3-0.26,0.45-0.61,0.44-1.05c-0.01-0.44-0.17-0.79-0.49-1.02c-0.32-0.24-0.76-0.35-1.32-0.34l-1.5,0.03l0.06,2.81L342.93,60.96z"
	/>
<g>
	<path d="M124.81,105.69c0.05,2.37-0.5,4.43-1.65,6.17c-1.15,1.74-2.82,3.1-5,4.07c-2.19,0.97-4.82,1.49-7.91,1.55l-15.21,0.32
		l-0.85-40.42l14.3-0.3c4.33-0.09,7.69,0.71,10.06,2.39c2.37,1.68,3.6,4.15,3.66,7.39c0.04,2.07-0.43,3.85-1.41,5.35
		c-0.99,1.49-2.45,2.67-4.39,3.54c2.61,0.66,4.66,1.84,6.13,3.55C124,101,124.76,103.13,124.81,105.69z M99.98,94.62l8.37-0.18
		c2.75-0.06,4.84-0.69,6.27-1.89c1.43-1.2,2.12-2.87,2.07-5.02c-0.09-4.15-2.94-6.16-8.55-6.04l-8.42,0.18L99.98,94.62z
		 M100.37,113.28l9.33-0.2c3.09-0.07,5.45-0.73,7.08-1.99c1.63-1.26,2.43-3.02,2.38-5.28c-0.1-4.86-3.32-7.23-9.65-7.09l-9.44,0.2
		L100.37,113.28z"/>
	<path d="M144.77,91.98c-3.05,0.06-5.59,1.53-7.6,4.4l0.43,20.52l-5.32,0.11l-0.61-29l4.47-0.09l0.6,4.4
		c2.12-3.33,4.83-5.02,8.15-5.09c1.55-0.03,2.83,0.19,3.86,0.65l0.11,5.09c-0.54-0.37-1.16-0.63-1.86-0.78
		C146.31,92.03,145.57,91.96,144.77,91.98z"/>
	<path d="M156.35,74.99c1.02-0.02,1.84,0.25,2.48,0.82c0.63,0.57,0.96,1.33,0.98,2.27c0.02,0.94-0.28,1.71-0.89,2.31
		c-0.61,0.6-1.42,0.91-2.44,0.93c-1.02,0.02-1.84-0.25-2.48-0.82c-0.63-0.57-0.96-1.33-0.98-2.27c-0.02-0.94,0.27-1.71,0.88-2.31
		C154.52,75.33,155.33,75.02,156.35,74.99z M153.96,87.54l5.32-0.11l0.61,29l-5.32,0.11L153.96,87.54z"/>
	<path d="M175.21,116.62c-2.19,0.05-3.82-0.49-4.9-1.62s-1.64-2.88-1.69-5.25l-0.75-35.62l5.31-0.11l0.75,35.39
		c0.02,1.06,0.24,1.81,0.64,2.28c0.4,0.46,1.08,0.68,2.02,0.66c0.45-0.01,0.91-0.08,1.38-0.23c0.47-0.14,0.96-0.33,1.49-0.57
		l0.09,4.07C178.39,116.25,176.95,116.59,175.21,116.62z"/>
	<path d="M192.17,116.26c-2.19,0.05-3.82-0.49-4.9-1.62s-1.64-2.88-1.69-5.25l-0.75-35.62l5.31-0.11l0.75,35.39
		c0.02,1.06,0.24,1.81,0.64,2.28c0.4,0.46,1.08,0.68,2.02,0.66c0.45-0.01,0.91-0.08,1.38-0.23c0.47-0.14,0.96-0.33,1.49-0.57
		l0.09,4.07C195.35,115.9,193.91,116.23,192.17,116.26z"/>
	<path d="M210.44,116.11c-1.85,0.04-3.54-0.12-5.07-0.49c-1.53-0.36-2.99-0.91-4.36-1.63l-0.1-4.75c1.3,0.92,2.74,1.6,4.31,2.06
		c1.57,0.46,3.25,0.67,5.02,0.63c2.11-0.04,3.72-0.46,4.84-1.23c1.11-0.78,1.66-1.88,1.63-3.31c-0.02-0.87-0.2-1.55-0.55-2.05
		c-0.35-0.5-0.96-0.93-1.84-1.29c-0.87-0.36-2.15-0.73-3.81-1.11c-2.5-0.55-4.48-1.2-5.92-1.94c-1.45-0.74-2.49-1.64-3.11-2.71
		c-0.63-1.06-0.95-2.35-0.99-3.85c-0.04-1.77,0.38-3.31,1.26-4.61c0.88-1.3,2.16-2.32,3.84-3.05c1.68-0.73,3.67-1.12,5.97-1.17
		c3.51-0.07,6.46,0.6,8.86,2.02l0.1,4.69c-1.11-0.84-2.41-1.49-3.89-1.93c-1.48-0.44-3.03-0.64-4.65-0.61
		c-2,0.04-3.56,0.42-4.67,1.15c-1.12,0.72-1.66,1.74-1.63,3.06c0.02,0.83,0.2,1.49,0.55,2c0.35,0.5,0.97,0.92,1.87,1.26
		c0.89,0.34,2.17,0.72,3.84,1.14c2.42,0.55,4.36,1.2,5.81,1.94c1.45,0.74,2.5,1.64,3.17,2.71c0.66,1.06,1.01,2.36,1.04,3.91
		c0.04,1.85-0.41,3.45-1.34,4.81c-0.93,1.36-2.26,2.41-3.98,3.17C214.92,115.65,212.85,116.05,210.44,116.11z"/>
	<path d="M251.77,112.69c-2.79,1.76-6.13,2.67-10.01,2.76c-2.94,0.06-5.51-0.5-7.7-1.68c-2.19-1.18-3.9-2.89-5.11-5.12
		c-1.22-2.24-1.86-4.88-1.92-7.93c-0.07-3.13,0.42-5.86,1.47-8.2c1.05-2.34,2.56-4.16,4.55-5.47c1.99-1.31,4.36-1.99,7.11-2.05
		c3.96-0.08,6.98,1.08,9.07,3.49c2.09,2.41,3.18,5.83,3.27,10.28l0.05,2.26l-20.24,0.43c0.25,3.12,1.26,5.53,3.01,7.2
		c1.75,1.68,4.1,2.49,7.03,2.43c1.73-0.04,3.35-0.3,4.85-0.78c1.5-0.48,2.99-1.23,4.48-2.24L251.77,112.69z M240.19,89.18
		c-2.15,0.05-3.91,0.81-5.3,2.29c-1.38,1.48-2.24,3.49-2.56,6.02l14.98-0.32c-0.25-2.75-0.95-4.78-2.11-6.09
		C244.05,89.77,242.37,89.13,240.19,89.18z"/>
	<path d="M272.59,88.72c-1.55,0.03-2.98,0.39-4.31,1.08c-1.32,0.69-2.48,1.68-3.47,2.99l0.45,21.43l-5.32,0.11l-0.61-29l4.47-0.09
		l0.48,3.72c2.5-3.03,5.62-4.59,9.35-4.67c2.15-0.05,4,0.35,5.54,1.18c1.54,0.84,2.75,2.07,3.61,3.71c0.86,1.64,1.32,3.63,1.37,5.97
		l0.39,18.66l-5.31,0.11l-0.39-18.32c-0.05-2.26-0.61-3.98-1.69-5.17C276.07,89.25,274.55,88.68,272.59,88.72z"/>
	<path d="M300.95,114.2c-1.85,0.04-3.54-0.12-5.07-0.49c-1.53-0.36-2.99-0.91-4.36-1.63l-0.1-4.75c1.3,0.92,2.74,1.6,4.31,2.06
		c1.57,0.46,3.25,0.67,5.02,0.63c2.11-0.04,3.72-0.46,4.84-1.23c1.11-0.78,1.66-1.88,1.63-3.31c-0.02-0.87-0.2-1.55-0.55-2.05
		c-0.35-0.5-0.96-0.93-1.84-1.29c-0.87-0.36-2.15-0.73-3.81-1.11c-2.5-0.55-4.48-1.2-5.92-1.94c-1.45-0.74-2.49-1.64-3.11-2.71
		c-0.63-1.06-0.95-2.35-0.99-3.85c-0.04-1.77,0.38-3.31,1.26-4.61c0.88-1.3,2.16-2.32,3.84-3.05c1.68-0.73,3.67-1.12,5.97-1.17
		c3.51-0.07,6.46,0.6,8.86,2.02l0.1,4.69c-1.11-0.84-2.41-1.49-3.89-1.93c-1.48-0.44-3.03-0.64-4.65-0.61
		c-2,0.04-3.56,0.42-4.67,1.15c-1.12,0.72-1.66,1.74-1.63,3.06c0.02,0.83,0.2,1.49,0.55,2c0.35,0.5,0.97,0.92,1.87,1.26
		c0.89,0.34,2.17,0.72,3.84,1.14c2.42,0.55,4.36,1.2,5.81,1.94c1.45,0.74,2.5,1.64,3.17,2.71c0.66,1.06,1.01,2.36,1.04,3.91
		c0.04,1.85-0.41,3.45-1.34,4.81c-0.93,1.36-2.26,2.41-3.98,3.17C305.43,113.75,303.36,114.15,300.95,114.2z"/>
	<path d="M342.28,110.78c-2.79,1.76-6.13,2.67-10.01,2.76c-2.94,0.06-5.51-0.5-7.7-1.68c-2.19-1.18-3.9-2.89-5.11-5.12
		c-1.22-2.24-1.86-4.88-1.92-7.93c-0.07-3.13,0.42-5.86,1.47-8.2c1.05-2.34,2.56-4.16,4.55-5.47c1.99-1.31,4.36-1.99,7.11-2.05
		c3.96-0.08,6.98,1.08,9.07,3.49c2.09,2.41,3.18,5.83,3.27,10.28l0.05,2.26l-20.24,0.43c0.25,3.12,1.26,5.53,3.01,7.2
		c1.75,1.68,4.1,2.49,7.03,2.43c1.73-0.04,3.35-0.3,4.85-0.78c1.5-0.48,2.99-1.23,4.48-2.24L342.28,110.78z M330.7,87.27
		c-2.15,0.05-3.91,0.81-5.3,2.29c-1.38,1.48-2.24,3.49-2.56,6.02l14.98-0.32c-0.25-2.75-0.95-4.78-2.11-6.09
		C334.56,87.86,332.89,87.22,330.7,87.27z"/>
</g>
<text transform="matrix(0.9998 -0.0211 0.0211 0.9998 94.6788 142.7251)" class="st13 st14">Empowering Businesses for Growth</text>
</svg>
