<?xml version="1.0" encoding="utf-8"?>
<!-- Generator: Adobe Illustrator 25.4.1, SVG Export Plug-In . SVG Version: 6.00 Build 0)  -->
<svg version="1.1" id="Layer_1" xmlns="http://www.w3.org/2000/svg" xmlns:xlink="http://www.w3.org/1999/xlink" x="0px" y="0px"
	 viewBox="0 0 641.1 222" style="enable-background:new 0 0 641.1 222;" xml:space="preserve">
<style type="text/css">
	.st0{fill:#EA4824;}
	.st1{fill:#EA4724;}
	.st2{fill:#F6B21A;}
	.st3{fill:#1EA9E1;}
	.st4{fill:#8FC641;}
	.st5{fill:#069547;}
	.st6{fill:#D32027;}
	.st7{filter:url(#Adobe_OpacityMaskFilter_00000045582309588617521640000014099376947399060367_);}
	.st8{filter:url(#Adobe_OpacityMaskFilter_00000161604697326356932610000002886413905953941405_);}
	.st9{mask:url(#id0_00000011018417536938393500000011887627768374320026_);fill:url(#SVGID_1_);}
	.st10{fill:url(#SVGID_00000025440946978402855330000011941771879650744729_);}
	.st11{fill:#A1D4B0;}
	.st12{fill:#FFC72B;}
	.st13{font-family:'MyriadPro-Regular';}
	.st14{font-size:31.5423px;}
	.st15{fill:#156835;}
	.st16{fill:#C89C2C;}
	.st17{fill:#4156A6;}
	.st18{filter:url(#Adobe_OpacityMaskFilter_00000142863391969562556230000010787034409950756268_);}
	.st19{filter:url(#Adobe_OpacityMaskFilter_00000111880294740911143960000009592119961046484625_);}
	
		.st20{mask:url(#id0_00000173159361673890920330000005883538894064839306_);fill:url(#SVGID_00000050622572199529135850000014024735491773099915_);}
	.st21{fill:url(#SVGID_00000052074176594709308420000004369177127772209033_);}
	.st22{filter:url(#Adobe_OpacityMaskFilter_00000167382809921423541120000001255449227496611230_);}
	.st23{filter:url(#Adobe_OpacityMaskFilter_00000013186698763854889990000011312346962862123190_);}
	
		.st24{mask:url(#id0_00000034051741997439645410000016085929990240662706_);fill:url(#SVGID_00000065065406161965298450000014793487888272715965_);}
	.st25{fill:url(#SVGID_00000111900648261182092820000010792350703322749073_);}
	.st26{fill:none;stroke:#ED1C24;stroke-width:3;stroke-miterlimit:10;}
</style>
<g>
	<g>
		<path class="st0" d="M59.1,61.9c-1.8-2.3-3.9-4.3-5.9-6.3c-2.1-2-4.2-3.9-6.4-5.7c-2.2-1.8-4.5-3.6-6.8-5.2
			c-2.3-1.7-4.7-3.3-7.3-4.6c1.8,2.3,3.9,4.3,5.9,6.3c2.1,2,4.2,3.9,6.4,5.7c2.2,1.8,4.5,3.6,6.8,5.2C54.2,58.9,56.5,60.5,59.1,61.9
			z"/>
		<path class="st0" d="M81.6,32.8c-0.3-2.8-0.6-5.7-1.1-8.5c-0.5-2.8-1-5.6-1.9-8.4c-0.3,2.9-0.3,5.8-0.3,8.6
			c0.1,2.9,0.2,5.7,0.5,8.6c0.3,2.8,0.6,5.7,1.1,8.5c0.5,2.8,1,5.6,1.9,8.4c0.3-2.9,0.3-5.8,0.3-8.6C82,38.5,81.9,35.7,81.6,32.8z"
			/>
		<path class="st0" d="M33.3,89.5c2.8-0.3,5.7-0.6,8.5-1.1c2.8-0.5,5.7-1,8.4-1.8c-2.9-0.3-5.8-0.4-8.6-0.3c-2.9,0-5.7,0.2-8.6,0.5
			c-2.8,0.3-5.7,0.6-8.5,1.1c-2.8,0.5-5.7,1-8.4,1.9c2.9,0.3,5.8,0.4,8.6,0.3C27.6,89.9,30.4,89.7,33.3,89.5z"/>
		<path class="st0" d="M63.2,42.6c-0.7-1.3-1.5-2.6-2.3-3.9c-0.8-1.3-1.7-2.5-2.7-3.7c0.4,1.5,0.9,2.9,1.5,4.3
			c0.6,1.4,1.2,2.8,1.9,4.1c0.7,1.3,1.5,2.6,2.3,3.9c0.8,1.3,1.7,2.5,2.7,3.7c-0.4-1.5-0.9-2.9-1.5-4.3
			C64.5,45.3,63.9,43.9,63.2,42.6z"/>
		<path class="st0" d="M99.9,39c-0.4,1.4-0.8,2.9-1.1,4.4c-0.3,1.5-0.6,3-0.7,4.5c0.8-1.3,1.5-2.7,2-4.1c0.6-1.4,1.1-2.8,1.5-4.3
			c0.5-1.4,0.8-2.9,1.1-4.4c0.3-1.5,0.6-3,0.7-4.5c-0.8,1.3-1.5,2.7-2,4.1C100.9,36.2,100.4,37.6,99.9,39z"/>
		<path class="st0" d="M44.9,105.2c1.3-0.7,2.6-1.5,3.9-2.3c1.3-0.8,2.5-1.7,3.7-2.8c-1.5,0.4-2.9,0.9-4.3,1.5
			c-1.4,0.6-2.8,1.2-4.1,1.9c-1.3,0.7-2.6,1.5-3.9,2.3c-1.3,0.8-2.5,1.7-3.7,2.8c1.5-0.4,2.9-0.9,4.3-1.5
			C42.2,106.6,43.6,105.9,44.9,105.2z"/>
		<path class="st0" d="M40,71.4c1.4,0.4,2.9,0.8,4.4,1.1c1.5,0.3,3,0.6,4.5,0.6c-1.3-0.8-2.7-1.4-4.1-2c-1.4-0.6-2.8-1.1-4.3-1.5
			c-1.4-0.4-2.9-0.8-4.4-1.1c-1.5-0.3-3-0.6-4.5-0.6c1.3,0.8,2.7,1.4,4.1,2C37.1,70.5,38.5,71,40,71.4z"/>
		<g>
			<path class="st1" d="M63.1,106.8l4.5-5.5c-9.4-8.7-10.5-23.4-2.2-33.4c0.6-0.7,1.2-1.3,1.8-2c-0.1-3,0.1-6.1,0.9-9.6
				c-3,1.8-5.8,4.1-8.2,7C49.2,76.4,50.7,95.6,63.1,106.8z"/>
			<path class="st1" d="M83.6,51.9l2.6,3.3l1.6,2.1c0.5,0.7,1,1.4,1.5,2.2c3.3,0.7,6.5,2.1,9.4,4.2l4.5-5.5
				C97.4,53.8,90.4,51.8,83.6,51.9z"/>
		</g>
		<g>
			<path class="st2" d="M68.8,99.9l5.4-6.5c-4.1-4.1-5.1-10.3-2.9-15.5c-0.5-0.8-1-1.5-1.4-2.3c-1.1-2-1.9-4.3-2.3-6.8
				c0-0.1,0-0.3-0.1-0.4c-0.2,0.2-0.4,0.5-0.6,0.7C59.3,78.3,60.2,91.8,68.8,99.9z"/>
			<path class="st2" d="M90.4,61.7c1.3,2.8,1.9,5.9,1.9,9c0,0.3,0,0.5,0,0.8l5.3-6.4C95.3,63.5,92.9,62.4,90.4,61.7z"/>
		</g>
		<path class="st3" d="M79.9,85.5c-2.1-1.1-4.1-2.5-5.8-4.2c-0.5-0.5-1-1.1-1.5-1.7c-1.4,4.2-0.4,9,2.8,12.3l5.1-6.2
			C80.3,85.7,80.1,85.6,79.9,85.5z"/>
		<path class="st4" d="M53.5,75.3C53.5,75.3,53.5,75.4,53.5,75.3C53.5,75.3,53.6,75.3,53.5,75.3C53.6,75.3,53.6,75.3,53.5,75.3z"/>
		<path class="st5" d="M73.5,51.9c-0.1,0.3-0.2,0.6-0.3,0.9c-0.1,0.3-0.2,0.7-0.3,1c0,0.1-0.1,0.2-0.1,0.3c-0.2,0.6-0.4,1.3-0.5,1.9
			c-0.6,2.3-0.9,4.6-1.1,6.8c0,0.4-0.1,0.8-0.1,1.1c0,0.3,0,0.6,0,0.9c0,0.1,0,0.2,0,0.2c0,1,0.1,2.1,0.2,3.1c0.3,2,0.9,3.9,1.9,5.6
			c0.1,0.2,0.2,0.3,0.3,0.5c0.2,0.3,0.3,0.6,0.5,0.8c0.1,0.2,0.3,0.4,0.5,0.7c0,0,0.1,0.1,0.1,0.1c0.7,0.9,1.4,1.8,2.3,2.7
			c1.4,1.4,3.1,2.6,4.8,3.5c0.4,0.2,0.9,0.4,1.4,0.6l0.4-0.5c-1.4-2.9-2.6-5.8-3.6-8.9c-0.1-0.4-0.2-0.8-0.4-1.2
			c0-0.1,0-0.1-0.1-0.2c-0.1-0.3-0.2-0.6-0.3-0.8c-0.1-0.3-0.1-0.5-0.2-0.8c-0.8-2.7-1.4-5.5-1.9-8.3c0-0.1,0-0.1,0-0.2
			c0-0.3-0.1-0.5-0.1-0.8c0-0.3-0.1-0.6-0.1-0.8c0-0.3-0.1-0.5-0.1-0.8c0-0.2,0.1-0.4,0.3-0.4c0.2,0,0.3,0.1,0.4,0.3
			c0.1,0.2,0.1,0.5,0.2,0.7c0.1,0.3,0.1,0.5,0.2,0.8c0.1,0.3,0.1,0.5,0.2,0.8c0,0.1,0,0.1,0.1,0.2c0.7,2.7,1.6,5.4,2.6,8
			c0.1,0.2,0.2,0.5,0.3,0.7c0.1,0.3,0.2,0.6,0.3,0.8c0,0.1,0,0.1,0.1,0.2c0.1,0.4,0.3,0.7,0.4,1.1c1.1,2.5,2.3,4.9,3.7,7.3l2.9-3.5
			c0.4-1.4,0.6-2.8,0.7-4.3c0-0.1,0-0.1,0-0.2c0-0.4,0-0.7,0.1-1.1c0,0,0-0.1,0-0.1c0-0.2,0-0.4,0-0.6C89,67,88.2,64,86.6,61.3
			c-0.1-0.1-0.2-0.3-0.2-0.4c0-0.1-0.1-0.1-0.1-0.2c-0.2-0.3-0.4-0.6-0.6-0.9c-0.1-0.2-0.2-0.3-0.3-0.5L85,59l-1.4-1.8L80.4,53
			c-0.2-0.3-0.4-0.5-0.6-0.8c-0.1-0.1-0.1-0.2-0.2-0.2c-0.2-0.3-0.4-0.5-0.6-0.8c-0.2-0.2-0.3-0.4-0.5-0.6c-1-1.3-2-2.6-3-4
			C74.8,48.3,74.1,50.1,73.5,51.9z"/>
	</g>
	<path class="st6" d="M86.4,131.4c11.5,2.2,20.3,13.2,18.3,25c-2.2,11.7-14.7,19.7-26.4,17.5c-11.7-2.2-19.4-13.6-17.2-25.3
		c0.2-1,0.5-2,0.8-3c3-10.2,12.7-21.5,23.3-33.9c20.8-24.4,49.1-46.9,25.4-86c-0.1-0.2-0.2-0.4-0.3-0.5c-0.2-0.3-0.4-0.6-0.6-0.9
		c3.3,33.1-47.1,66.7-70.4,104.8l0,0c-4.5,7-8.3,15.4-9.9,23.8c-5.3,27.7,12.9,54.5,40.6,59.8c27.7,5.3,54.5-12.9,59.8-40.6
		c2.5-13.1-0.2-25.9-6.7-36.4c7.9-2.2,10.7-10.7,10.6-15.8c-11.6,12.3-24.6-9.1-37.3,6.3c-5.2-0.9-11.2-0.3-16.3,4.9
		C82.2,130.9,84.3,131,86.4,131.4L86.4,131.4z"/>
	<defs>
		<filter id="Adobe_OpacityMaskFilter" filterUnits="userSpaceOnUse" x="102.3" y="124.7" width="14" height="4.5">
			<feColorMatrix  type="matrix" values="1 0 0 0 0  0 1 0 0 0  0 0 1 0 0  0 0 0 1 0"/>
		</filter>
	</defs>
	
		<mask maskUnits="userSpaceOnUse" x="102.3" y="124.7" width="14" height="4.5" id="id0_00000011018417536938393500000011887627768374320026_">
		<defs>
			
				<filter id="Adobe_OpacityMaskFilter_00000103986729066802399720000007338443824239136909_" filterUnits="userSpaceOnUse" x="102.1" y="124.1" width="14.5" height="5.6">
				<feFlood  style="flood-color:white;flood-opacity:1" result="back"/>
				<feBlend  in="SourceGraphic" in2="back" mode="normal"/>
			</filter>
		</defs>
		
			<mask maskUnits="userSpaceOnUse" x="102.1" y="124.1" width="14.5" height="5.6" id="id0_00000011018417536938393500000011887627768374320026_" style="filter:url(#Adobe_OpacityMaskFilter);">
			<g style="filter:url(#Adobe_OpacityMaskFilter_00000103986729066802399720000007338443824239136909_);">
				<defs>
					
						<filter id="Adobe_OpacityMaskFilter_00000073686047187715108250000006745063887700608662_" filterUnits="userSpaceOnUse" x="102.1" y="124.1" width="14.5" height="5.6">
						<feFlood  style="flood-color:white;flood-opacity:1" result="back"/>
						<feBlend  in="SourceGraphic" in2="back" mode="normal"/>
					</filter>
				</defs>
				
					<mask maskUnits="userSpaceOnUse" x="102.1" y="124.1" width="14.5" height="5.6" id="id0_00000011018417536938393500000011887627768374320026_">
				</mask>
				
					<linearGradient id="SVGID_1_" gradientUnits="userSpaceOnUse" x1="103.0512" y1="220.9672" x2="103.0645" y2="217.4994" gradientTransform="matrix(0.9974 -7.250538e-02 -7.250538e-02 -0.9974 22.3198 351.0128)">
					<stop  offset="0" style="stop-color:#FFFFFF"/>
					<stop  offset="1" style="stop-color:#000000"/>
				</linearGradient>
				<polygon class="st9" points="102.1,125.1 116.3,124.1 116.6,128.6 102.4,129.7 				"/>
			</g>
		</mask>
		
			<linearGradient id="SVGID_00000132080487682696566070000000799491202836078234_" gradientUnits="userSpaceOnUse" x1="103.0512" y1="220.9672" x2="103.0645" y2="217.4994" gradientTransform="matrix(0.9974 -7.250538e-02 -7.250538e-02 -0.9974 22.3198 351.0128)">
			<stop  offset="0" style="stop-color:#FFFFFF"/>
			<stop  offset="1" style="stop-color:#FFFFFF"/>
		</linearGradient>
		<polygon style="fill:url(#SVGID_00000132080487682696566070000000799491202836078234_);" points="102.1,125.1 116.3,124.1 
			116.6,128.6 102.4,129.7 		"/>
	</mask>
	<path class="st11" d="M116.3,124.7c-4.3,4.6-9.2-3.4-14,2.3C103.6,130.4,114.3,130,116.3,124.7z"/>
	<path class="st12" d="M78.4,173.9c-11.8-2.2-19.6-13.6-17.3-25.3c0.2-1,0.5-2,0.8-3c0.2-0.6,0.4-1.2,0.6-1.8c1-2.8,2.5-5.7,4.4-8.6
		c-2.7,4-5.4,8.5-7.2,13c-6.6,17.1,3.6,36.5,22.1,40c16,3,31.5-7.4,34.6-23.2c3.1-15.9-7.4-31.2-23.4-34.2
		c-4.3-0.8-8.6-0.7-12.6,0.3c2-0.2,4.2,0,6.3,0.4c11.8,2.2,19.6,13.5,17.3,25.2C101.7,168.4,90.3,176.1,78.4,173.9L78.4,173.9z"/>
</g>
<path d="M617.6,22c2.1,1.1,3.8,2.7,5,4.8c1.2,2,1.9,4.3,1.9,6.9c0.1,2.5-0.5,4.8-1.7,7c-1.2,2.1-2.8,3.8-4.8,5.1
	c-2.1,1.3-4.4,1.9-6.9,2c-2.5,0.1-4.8-0.5-6.9-1.7c-2.1-1.2-3.8-2.8-5-4.8s-1.9-4.3-1.9-6.8c-0.1-2.5,0.5-4.8,1.7-6.9s2.8-3.8,4.8-5
	c2.1-1.3,4.4-1.9,6.9-2C613.2,20.3,615.5,20.8,617.6,22 M616.9,43.8c1.7-1.1,3.1-2.5,4-4.3c1-1.8,1.4-3.7,1.4-5.9
	c0-2.1-0.6-4.1-1.6-5.8c-1-1.7-2.4-3.1-4.1-4c-1.7-1-3.7-1.4-5.9-1.4c-2.2,0-4.1,0.6-5.8,1.6c-1.7,1.1-3.1,2.5-4,4.2
	c-1,1.8-1.4,3.7-1.4,5.9c0,2.1,0.6,4.1,1.6,5.8c1,1.7,2.4,3.1,4.2,4.1c1.8,1,3.7,1.4,5.8,1.4C613.2,45.4,615.2,44.9,616.9,43.8
	 M617.2,34.4c-0.5,0.8-1.3,1.4-2.2,1.9l3.5,5.1l-3.3,0.1l-3.1-4.6l-0.4,0l-3,0.1l0.1,4.6l-3.3,0.1L605,26.5l6.3-0.1
	c2,0,3.6,0.4,4.7,1.3c1.2,0.9,1.8,2.2,1.8,3.8C617.9,32.6,617.7,33.6,617.2,34.4 M611.3,34.3c1.1,0,1.9-0.3,2.5-0.8
	c0.6-0.5,0.9-1.2,0.8-2c0-0.8-0.3-1.5-0.9-2c-0.6-0.5-1.4-0.7-2.5-0.6l-2.9,0.1l0.1,5.4L611.3,34.3z"/>
<g>
	<path d="M225.8,108c0.1,4.4-0.9,8.2-3.1,11.4c-2.1,3.2-5.2,5.7-9.3,7.5s-8.9,2.8-14.7,2.9l-28.2,0.6l-1.6-75l26.5-0.6
		c8-0.2,14.3,1.3,18.7,4.4c4.4,3.1,6.7,7.7,6.8,13.7c0.1,3.8-0.8,7.1-2.6,9.9c-1.8,2.8-4.5,5-8.1,6.6c4.8,1.2,8.6,3.4,11.4,6.6
		C224.2,99.3,225.6,103.3,225.8,108z M179.7,87.5l15.5-0.3c5.1-0.1,9-1.3,11.6-3.5c2.6-2.2,3.9-5.3,3.8-9.3
		c-0.2-7.7-5.5-11.4-15.9-11.2l-15.6,0.3L179.7,87.5z M180.4,122.1l17.3-0.4c5.7-0.1,10.1-1.3,13.1-3.7c3-2.3,4.5-5.6,4.4-9.8
		c-0.2-9-6.2-13.4-17.9-13.2l-17.5,0.4L180.4,122.1z"/>
	<path d="M262.8,82.6c-5.7,0.1-10.4,2.8-14.1,8.2l0.8,38.1l-9.9,0.2l-1.1-53.8l8.3-0.2l1.1,8.2c3.9-6.2,9-9.3,15.1-9.4
		c2.9-0.1,5.3,0.3,7.2,1.2l0.2,9.4c-1-0.7-2.1-1.2-3.4-1.4C265.6,82.7,264.2,82.6,262.8,82.6z"/>
	<path d="M284.2,51.1c1.9,0,3.4,0.5,4.6,1.5c1.2,1.1,1.8,2.5,1.8,4.2c0,1.7-0.5,3.2-1.6,4.3c-1.1,1.1-2.6,1.7-4.5,1.7
		c-1.9,0-3.4-0.5-4.6-1.5c-1.2-1.1-1.8-2.5-1.8-4.2c0-1.7,0.5-3.2,1.6-4.3C280.8,51.7,282.3,51.2,284.2,51.1z M279.8,74.4l9.9-0.2
		l1.1,53.8l-9.9,0.2L279.8,74.4z"/>
	<path d="M319.2,128.3c-4.1,0.1-7.1-0.9-9.1-3c-2-2.1-3-5.3-3.1-9.7l-1.4-66l9.9-0.2l1.4,65.6c0,2,0.4,3.4,1.2,4.2
		c0.7,0.9,2,1.3,3.7,1.2c0.8,0,1.7-0.2,2.6-0.4c0.9-0.3,1.8-0.6,2.8-1.1l0.2,7.5C325.1,127.6,322.4,128.2,319.2,128.3z"/>
	<path d="M350.6,127.6c-4.1,0.1-7.1-0.9-9.1-3s-3-5.3-3.1-9.7l-1.4-66l9.9-0.2l1.4,65.6c0,2,0.4,3.4,1.2,4.2c0.7,0.9,2,1.3,3.7,1.2
		c0.8,0,1.7-0.2,2.6-0.4c0.9-0.3,1.8-0.6,2.8-1.1l0.2,7.5C356.5,127,353.9,127.6,350.6,127.6z"/>
	<path d="M384.5,127.3c-3.4,0.1-6.6-0.2-9.4-0.9c-2.8-0.7-5.5-1.7-8.1-3l-0.2-8.8c2.4,1.7,5.1,3,8,3.8c2.9,0.8,6,1.2,9.3,1.2
		c3.9-0.1,6.9-0.8,9-2.3c2.1-1.4,3.1-3.5,3-6.1c0-1.6-0.4-2.9-1-3.8c-0.6-0.9-1.8-1.7-3.4-2.4c-1.6-0.7-4-1.3-7.1-2.1
		c-4.6-1-8.3-2.2-11-3.6c-2.7-1.4-4.6-3-5.8-5c-1.2-2-1.8-4.4-1.8-7.1c-0.1-3.3,0.7-6.1,2.3-8.5c1.6-2.4,4-4.3,7.1-5.7
		c3.1-1.4,6.8-2.1,11.1-2.2c6.5-0.1,12,1.1,16.4,3.7l0.2,8.7c-2.1-1.6-4.5-2.8-7.2-3.6c-2.7-0.8-5.6-1.2-8.6-1.1
		c-3.7,0.1-6.6,0.8-8.7,2.1c-2.1,1.3-3.1,3.2-3,5.7c0,1.5,0.4,2.8,1,3.7c0.6,0.9,1.8,1.7,3.5,2.3c1.7,0.6,4,1.3,7.1,2.1
		c4.5,1,8.1,2.2,10.8,3.6c2.7,1.4,4.6,3,5.9,5c1.2,2,1.9,4.4,1.9,7.2c0.1,3.4-0.8,6.4-2.5,8.9c-1.7,2.5-4.2,4.5-7.4,5.9
		C392.8,126.5,389,127.2,384.5,127.3z"/>
	<path d="M461.1,121c-5.2,3.3-11.4,5-18.6,5.1c-5.5,0.1-10.2-0.9-14.3-3.1c-4.1-2.2-7.2-5.4-9.5-9.5c-2.3-4.1-3.4-9.1-3.6-14.7
		c-0.1-5.8,0.8-10.9,2.7-15.2c1.9-4.3,4.8-7.7,8.4-10.1c3.7-2.4,8.1-3.7,13.2-3.8c7.3-0.2,12.9,2,16.8,6.5
		c3.9,4.5,5.9,10.8,6.1,19.1l0.1,4.2l-37.5,0.8c0.5,5.8,2.3,10.2,5.6,13.4c3.2,3.1,7.6,4.6,13,4.5c3.2-0.1,6.2-0.6,9-1.4
		c2.8-0.9,5.5-2.3,8.3-4.2L461.1,121z M439.7,77.4c-4,0.1-7.3,1.5-9.8,4.2c-2.6,2.7-4.1,6.5-4.7,11.2l27.8-0.6
		c-0.5-5.1-1.8-8.9-3.9-11.3C446.8,78.5,443.7,77.3,439.7,77.4z"/>
	<path d="M499.7,76.6c-2.9,0.1-5.5,0.7-8,2s-4.6,3.1-6.4,5.5l0.8,39.7l-9.9,0.2l-1.1-53.8l8.3-0.2l0.9,6.9
		c4.6-5.6,10.4-8.5,17.3-8.7c4-0.1,7.4,0.6,10.3,2.2c2.9,1.5,5.1,3.8,6.7,6.9c1.6,3,2.4,6.7,2.5,11.1l0.7,34.6l-9.9,0.2l-0.7-34
		c-0.1-4.2-1.1-7.4-3.1-9.6C506.2,77.6,503.4,76.5,499.7,76.6z"/>
	<path d="M552.3,123.8c-3.4,0.1-6.6-0.2-9.4-0.9c-2.8-0.7-5.5-1.7-8.1-3l-0.2-8.8c2.4,1.7,5.1,3,8,3.8c2.9,0.8,6,1.2,9.3,1.2
		c3.9-0.1,6.9-0.8,9-2.3c2.1-1.4,3.1-3.5,3-6.1c0-1.6-0.4-2.9-1-3.8c-0.6-0.9-1.8-1.7-3.4-2.4c-1.6-0.7-4-1.3-7.1-2.1
		c-4.6-1-8.3-2.2-11-3.6c-2.7-1.4-4.6-3-5.8-5c-1.2-2-1.8-4.4-1.8-7.1c-0.1-3.3,0.7-6.1,2.3-8.5c1.6-2.4,4-4.3,7.1-5.7
		c3.1-1.4,6.8-2.1,11.1-2.2c6.5-0.1,12,1.1,16.4,3.7l0.2,8.7c-2.1-1.6-4.5-2.8-7.2-3.6c-2.7-0.8-5.6-1.2-8.6-1.1
		c-3.7,0.1-6.6,0.8-8.7,2.1c-2.1,1.3-3.1,3.2-3,5.7c0,1.5,0.4,2.8,1,3.7c0.6,0.9,1.8,1.7,3.5,2.3c1.7,0.6,4,1.3,7.1,2.1
		c4.5,1,8.1,2.2,10.8,3.6c2.7,1.4,4.6,3,5.9,5c1.2,2,1.9,4.4,1.9,7.2c0.1,3.4-0.8,6.4-2.5,8.9c-1.7,2.5-4.2,4.5-7.4,5.9
		C560.6,123,556.8,123.7,552.3,123.8z"/>
	<path d="M629,117.5c-5.2,3.3-11.4,5-18.6,5.1c-5.5,0.1-10.2-0.9-14.3-3.1c-4.1-2.2-7.2-5.4-9.5-9.5c-2.3-4.1-3.4-9.1-3.6-14.7
		c-0.1-5.8,0.8-10.9,2.7-15.2c1.9-4.3,4.8-7.7,8.4-10.1c3.7-2.4,8.1-3.7,13.2-3.8c7.3-0.2,12.9,2,16.8,6.5
		c3.9,4.5,5.9,10.8,6.1,19.1l0.1,4.2l-37.5,0.8c0.5,5.8,2.3,10.2,5.6,13.4c3.2,3.1,7.6,4.6,13,4.5c3.2-0.1,6.2-0.6,9-1.4
		c2.8-0.9,5.5-2.3,8.3-4.2L629,117.5z M607.5,73.9c-4,0.1-7.3,1.5-9.8,4.2c-2.6,2.7-4.1,6.5-4.7,11.2l27.8-0.6
		c-0.5-5.1-1.8-8.9-3.9-11.3C614.6,75,611.5,73.8,607.5,73.9z"/>
</g>
<text transform="matrix(0.9998 -2.107000e-02 2.107000e-02 0.9998 169.8745 176.6972)" class="st13 st14">Empowering Businesses for Growth</text>
</svg>
